<svg xmlns="http://www.w3.org/2000/svg" viewBox="0 0 780 457" width="1560" height="914"><rect width="780" height="457" fill="#fffdf7"/><text x="24" y="40" font-family="DejaVu Sans" font-size="13" font-weight="bold" fill="#6b6350">AT 2.4x — how the drawing reads</text><clipPath id="a0"><circle cx="0" cy="0" r="33"/></clipPath><g transform="translate(121.6,145.6) scale(2.4)"><circle cx="0" cy="0" r="34" fill="#fdeaf6" stroke="#f000c2" stroke-width="2"/><g clip-path="url(#a0)"><path d="M-5.0 -1.0 C-13.0 -5.0 -22.0 -12.0 -25.0 -21.0 C-22.0 -17.0 -20.0 -18.0 -19.0 -14.0 C-17.0 -16.0 -15.0 -15.0 -14.0 -11.0 C-12.0 -13.0 -10.0 -11.0 -9.0 -7.0 Z" fill="#1638a8"/><path d="M5.0 -1.0 C13.0 -5.0 22.0 -12.0 25.0 -21.0 C22.0 -17.0 20.0 -18.0 19.0 -14.0 C17.0 -16.0 15.0 -15.0 14.0 -11.0 C12.0 -13.0 10.0 -11.0 9.0 -7.0 Z" fill="#1638a8"/><g transform="translate(-10.8,-22.0) scale(0.4400)"><path d="M13.73 99.75C13.73 99.38 13.32 99.02 12.9 99.02C12.33 99.02 12.1 98.87 10.93 97.7L9.8 96.57L9.8 93.62L9.8 90.67L9.31 90.2L8.82 89.72L8.82 88.73L8.82 87.73L8.33 87.25C7.87 86.81 7.84 86.76 7.84 86.27C7.84 85.79 7.82 85.74 7.35 85.29C6.89 84.85 6.86 84.79 6.86 84.32L6.86 83.82L5.39 82.35L3.92 80.89L3.92 80.39L3.92 79.89L2.94 78.92L1.96 77.95L1.96 77.44C1.96 76.96 1.93 76.91 1.51 76.52C1.09 76.13 1.05 76.06 0.99 75.49C0.91 74.81 0.67 74.51 0.23 74.51L0 74.51L0 55.88L0 37.25L0.23 37.25C0.36 37.25 0.57 37.17 0.7 37.07C0.93 36.88 0.93 36.84 0.98 34.81L1.03 32.75L1.5 32.32L1.96 31.89L1.96 30.4L1.96 28.9L2.45 28.43C2.92 27.98 2.94 27.93 2.94 27.45C2.94 26.97 2.97 26.92 3.43 26.47L3.92 26L3.92 25L3.92 24L4.41 23.53L4.9 23.06L4.9 17.16L4.9 11.26L5.39 10.78L5.88 10.31L5.88 9.31L5.88 8.32L6.37 7.84L6.86 7.37L6.86 6.37L6.86 5.37L7.35 4.9L7.84 4.43L7.84 2.94L7.84 1.45L8.33 0.98C8.67 0.65 8.82 0.43 8.82 0.25L8.82 0L9.8 0L10.78 0L10.78 0.25C10.78 0.62 11.19 0.98 11.61 0.98C12.12 0.98 12.47 1.15 12.81 1.55L13.12 1.91L19.12 1.96L25.11 2.01L25.47 2.43C25.8 2.82 25.89 2.86 26.47 2.94C27.05 3.02 27.14 3.07 27.45 3.43C27.76 3.79 27.85 3.84 28.43 3.92C29.02 4 29.1 4.05 29.43 4.43L29.79 4.85L32.33 4.9L34.87 4.95L35.57 5.66L36.27 6.38L36.27 7.84L36.27 9.31L35.59 10.01C34.94 10.67 34.88 10.7 34.31 10.78C33.72 10.87 33.7 10.88 32.84 11.76C31.99 12.65 31.97 12.66 31.38 12.74L30.78 12.83L29.41 14.22L28.04 15.6L27.44 15.69C26.68 15.8 26.55 15.92 26.46 16.68C26.4 17.24 26.36 17.32 25.99 17.62C25.48 18.05 25.49 18.21 26.03 18.69L26.47 19.09L26.47 20.08L26.47 21.07L27.17 21.79L27.87 22.5L33.36 22.55L38.84 22.6L39.21 23.04L39.59 23.47L40.66 23.53L41.73 23.58L43.41 25.27L45.1 26.96L45.1 29.41L45.1 31.86L44.41 32.55C43.75 33.22 43.71 33.25 43.11 33.34C42.56 33.41 42.47 33.46 42.14 33.84L41.78 34.26L40.2 34.26L38.61 34.26L38.24 33.83L37.87 33.39L36.76 33.33L35.66 33.28L35.29 32.84L34.92 32.4L33.82 32.4L32.73 32.4L32.36 32.84L31.98 33.28L30.91 33.33L29.83 33.39L29.13 34.1C28.45 34.79 28.43 34.82 28.43 35.29C28.43 35.77 28.45 35.8 29.13 36.49L29.83 37.21L35.79 37.25L41.74 37.3L42.63 38.22C43.5 39.12 43.53 39.13 44.11 39.21L44.69 39.3L46.33 40.93L47.96 42.57L48.03 43.16C48.11 43.81 48.35 44.12 48.79 44.12L49.02 44.12L49.02 45.59L49.02 47.06L48.79 47.06C48.35 47.06 48.11 47.36 48.03 48.02C47.97 48.59 47.94 48.64 47.31 49.27C46.69 49.89 46.63 49.92 46.05 50C45.5 50.08 45.41 50.13 45.08 50.51C44.73 50.92 44.71 50.93 44.12 50.93C43.53 50.93 43.51 50.92 43.15 50.51C42.83 50.13 42.74 50.08 42.17 50C41.56 49.92 41.55 49.91 40.69 49.02C39.82 48.13 39.81 48.12 39.2 48.04C38.64 47.96 38.54 47.91 38.24 47.55C37.92 47.19 37.83 47.14 37.25 47.06C36.67 46.98 36.59 46.93 36.26 46.55L35.9 46.13L33.82 46.13L31.75 46.13L31.39 46.55C31.06 46.93 30.98 46.98 30.39 47.06C29.6 47.17 29.41 47.36 29.41 48.06C29.41 48.52 29.38 48.58 28.92 49.02L28.43 49.49L28.43 51.96L28.43 54.43L28.92 54.9L29.41 55.37L29.41 56.85L29.41 58.33L30.59 59.52L31.77 60.7L32.38 60.79C32.93 60.86 33.03 60.92 33.33 61.27C33.64 61.64 33.74 61.68 34.31 61.76C34.89 61.85 34.98 61.89 35.29 62.25C35.6 62.61 35.7 62.66 36.25 62.74L36.85 62.83L38.52 64.5L40.2 66.18L40.2 66.68C40.2 67.15 40.22 67.2 40.69 67.65C41.15 68.09 41.18 68.15 41.18 68.63C41.18 69.11 41.2 69.16 41.67 69.61L42.16 70.08L42.16 72.06L42.16 74.04L42.65 74.51L43.14 74.98L43.14 76.47L43.14 77.95L44.12 78.92C45.1 79.89 45.1 79.9 45.1 80.38C45.1 81.06 45.29 81.26 46.06 81.37C46.68 81.46 46.68 81.46 47.54 82.34C48.15 82.98 48.48 83.25 48.7 83.29L49.02 83.36L49.02 84.8L49.02 86.25L48.7 86.31C48.48 86.36 48.15 86.63 47.52 87.28L46.65 88.19L40.67 88.19L34.69 88.19L34.33 87.77C34 87.38 33.92 87.34 33.33 87.25C32.54 87.14 32.35 86.95 32.35 86.25C32.35 85.8 32.32 85.74 31.86 85.29C31.4 84.85 31.37 84.79 31.37 84.31C31.37 83.83 31.35 83.78 30.88 83.33L30.39 82.86L30.39 81.86L30.39 80.86L29.9 80.39C29.44 79.95 29.41 79.89 29.41 79.42L29.41 78.92L28.22 77.72L27.02 76.52L25.95 76.47L24.88 76.41L24.51 75.98C24.14 75.55 24.12 75.54 23.55 75.54L22.97 75.54L22.27 76.25L21.57 76.96L21.57 83.33L21.57 89.7L23.24 91.38L24.91 93.06L25.49 93.14C26.07 93.22 26.07 93.22 27.25 94.41L28.43 95.59L28.43 97C28.43 97.78 28.4 98.49 28.37 98.57C28.28 98.81 27.81 99.02 27.35 99.02C26.88 99.02 26.47 99.36 26.47 99.75L26.47 100L20.1 100L13.73 100L13.73 99.75Z" fill="#f000c2"/></g></g></g><text x="121.6" y="248" text-anchor="middle" font-family="DejaVu Sans" font-size="14" font-weight="bold" letter-spacing=".4" fill="#f000c2">3 BIRDIES</text><clipPath id="a1"><circle cx="0" cy="0" r="33"/></clipPath><g transform="translate(366.4,145.6) scale(2.4)"><circle cx="0" cy="0" r="34" fill="#e9f2f9" stroke="#5b8db8" stroke-width="2"/><g clip-path="url(#a1)"><g transform="translate(-9.8,-17.0) scale(0.4000)"><path d="M13.73 99.75C13.73 99.38 13.32 99.02 12.9 99.02C12.33 99.02 12.1 98.87 10.93 97.7L9.8 96.57L9.8 93.62L9.8 90.67L9.31 90.2L8.82 89.72L8.82 88.73L8.82 87.73L8.33 87.25C7.87 86.81 7.84 86.76 7.84 86.27C7.84 85.79 7.82 85.74 7.35 85.29C6.89 84.85 6.86 84.79 6.86 84.32L6.86 83.82L5.39 82.35L3.92 80.89L3.92 80.39L3.92 79.89L2.94 78.92L1.96 77.95L1.96 77.44C1.96 76.96 1.93 76.91 1.51 76.52C1.09 76.13 1.05 76.06 0.99 75.49C0.91 74.81 0.67 74.51 0.23 74.51L0 74.51L0 55.88L0 37.25L0.23 37.25C0.36 37.25 0.57 37.17 0.7 37.07C0.93 36.88 0.93 36.84 0.98 34.81L1.03 32.75L1.5 32.32L1.96 31.89L1.96 30.4L1.96 28.9L2.45 28.43C2.92 27.98 2.94 27.93 2.94 27.45C2.94 26.97 2.97 26.92 3.43 26.47L3.92 26L3.92 25L3.92 24L4.41 23.53L4.9 23.06L4.9 17.16L4.9 11.26L5.39 10.78L5.88 10.31L5.88 9.31L5.88 8.32L6.37 7.84L6.86 7.37L6.86 6.37L6.86 5.37L7.35 4.9L7.84 4.43L7.84 2.94L7.84 1.45L8.33 0.98C8.67 0.65 8.82 0.43 8.82 0.25L8.82 0L9.8 0L10.78 0L10.78 0.25C10.78 0.62 11.19 0.98 11.61 0.98C12.12 0.98 12.47 1.15 12.81 1.55L13.12 1.91L19.12 1.96L25.11 2.01L25.47 2.43C25.8 2.82 25.89 2.86 26.47 2.94C27.05 3.02 27.14 3.07 27.45 3.43C27.76 3.79 27.85 3.84 28.43 3.92C29.02 4 29.1 4.05 29.43 4.43L29.79 4.85L32.33 4.9L34.87 4.95L35.57 5.66L36.27 6.38L36.27 7.84L36.27 9.31L35.59 10.01C34.94 10.67 34.88 10.7 34.31 10.78C33.72 10.87 33.7 10.88 32.84 11.76C31.99 12.65 31.97 12.66 31.38 12.74L30.78 12.83L29.41 14.22L28.04 15.6L27.44 15.69C26.68 15.8 26.55 15.92 26.46 16.68C26.4 17.24 26.36 17.32 25.99 17.62C25.48 18.05 25.49 18.21 26.03 18.69L26.47 19.09L26.47 20.08L26.47 21.07L27.17 21.79L27.87 22.5L33.36 22.55L38.84 22.6L39.21 23.04L39.59 23.47L40.66 23.53L41.73 23.58L43.41 25.27L45.1 26.96L45.1 29.41L45.1 31.86L44.41 32.55C43.75 33.22 43.71 33.25 43.11 33.34C42.56 33.41 42.47 33.46 42.14 33.84L41.78 34.26L40.2 34.26L38.61 34.26L38.24 33.83L37.87 33.39L36.76 33.33L35.66 33.28L35.29 32.84L34.92 32.4L33.82 32.4L32.73 32.4L32.36 32.84L31.98 33.28L30.91 33.33L29.83 33.39L29.13 34.1C28.45 34.79 28.43 34.82 28.43 35.29C28.43 35.77 28.45 35.8 29.13 36.49L29.83 37.21L35.79 37.25L41.74 37.3L42.63 38.22C43.5 39.12 43.53 39.13 44.11 39.21L44.69 39.3L46.33 40.93L47.96 42.57L48.03 43.16C48.11 43.81 48.35 44.12 48.79 44.12L49.02 44.12L49.02 45.59L49.02 47.06L48.79 47.06C48.35 47.06 48.11 47.36 48.03 48.02C47.97 48.59 47.94 48.64 47.31 49.27C46.69 49.89 46.63 49.92 46.05 50C45.5 50.08 45.41 50.13 45.08 50.51C44.73 50.92 44.71 50.93 44.12 50.93C43.53 50.93 43.51 50.92 43.15 50.51C42.83 50.13 42.74 50.08 42.17 50C41.56 49.92 41.55 49.91 40.69 49.02C39.82 48.13 39.81 48.12 39.2 48.04C38.64 47.96 38.54 47.91 38.24 47.55C37.92 47.19 37.83 47.14 37.25 47.06C36.67 46.98 36.59 46.93 36.26 46.55L35.9 46.13L33.82 46.13L31.75 46.13L31.39 46.55C31.06 46.93 30.98 46.98 30.39 47.06C29.6 47.17 29.41 47.36 29.41 48.06C29.41 48.52 29.38 48.58 28.92 49.02L28.43 49.49L28.43 51.96L28.43 54.43L28.92 54.9L29.41 55.37L29.41 56.85L29.41 58.33L30.59 59.52L31.77 60.7L32.38 60.79C32.93 60.86 33.03 60.92 33.33 61.27C33.64 61.64 33.74 61.68 34.31 61.76C34.89 61.85 34.98 61.89 35.29 62.25C35.6 62.61 35.7 62.66 36.25 62.74L36.85 62.83L38.52 64.5L40.2 66.18L40.2 66.68C40.2 67.15 40.22 67.2 40.69 67.65C41.15 68.09 41.18 68.15 41.18 68.63C41.18 69.11 41.2 69.16 41.67 69.61L42.16 70.08L42.16 72.06L42.16 74.04L42.65 74.51L43.14 74.98L43.14 76.47L43.14 77.95L44.12 78.92C45.1 79.89 45.1 79.9 45.1 80.38C45.1 81.06 45.29 81.26 46.06 81.37C46.68 81.46 46.68 81.46 47.54 82.34C48.15 82.98 48.48 83.25 48.7 83.29L49.02 83.36L49.02 84.8L49.02 86.25L48.7 86.31C48.48 86.36 48.15 86.63 47.52 87.28L46.65 88.19L40.67 88.19L34.69 88.19L34.33 87.77C34 87.38 33.92 87.34 33.33 87.25C32.54 87.14 32.35 86.95 32.35 86.25C32.35 85.8 32.32 85.74 31.86 85.29C31.4 84.85 31.37 84.79 31.37 84.31C31.37 83.83 31.35 83.78 30.88 83.33L30.39 82.86L30.39 81.86L30.39 80.86L29.9 80.39C29.44 79.95 29.41 79.89 29.41 79.42L29.41 78.92L28.22 77.72L27.02 76.52L25.95 76.47L24.88 76.41L24.51 75.98C24.14 75.55 24.12 75.54 23.55 75.54L22.97 75.54L22.27 76.25L21.57 76.96L21.57 83.33L21.57 89.7L23.24 91.38L24.91 93.06L25.49 93.14C26.07 93.22 26.07 93.22 27.25 94.41L28.43 95.59L28.43 97C28.43 97.78 28.4 98.49 28.37 98.57C28.28 98.81 27.81 99.02 27.35 99.02C26.88 99.02 26.47 99.36 26.47 99.75L26.47 100L20.1 100L13.73 100L13.73 99.75Z" fill="#7fb2d8"/></g><path d="M-14 -19 A15 15 0 0 1 16 -19 Q11 -22.5 6 -19 Q1 -22.5 -4 -19 Q-9 -22.5 -14 -19 Z" fill="#1638a8"/><path d="M1 -19 V-1" stroke="#1638a8" stroke-width="2.2" stroke-linecap="round"/><path d="M1 -1 q0 4.5 -4.5 4.5" fill="none" stroke="#1638a8" stroke-width="2.2" stroke-linecap="round"/></g></g><text x="366.4" y="248" text-anchor="middle" font-family="DejaVu Sans" font-size="14" font-weight="bold" letter-spacing=".4" fill="#5b8db8">RAIN</text><clipPath id="a2"><circle cx="0" cy="0" r="33"/></clipPath><g transform="translate(611.1999999999999,145.6) scale(2.4)"><circle cx="0" cy="0" r="34" fill="#fdf0d8" stroke="#f2a413" stroke-width="2"/><g clip-path="url(#a2)"><g transform="translate(-10.8,-22.0) scale(0.4400)"><path d="M13.73 99.75C13.73 99.38 13.32 99.02 12.9 99.02C12.33 99.02 12.1 98.87 10.93 97.7L9.8 96.57L9.8 93.62L9.8 90.67L9.31 90.2L8.82 89.72L8.82 88.73L8.82 87.73L8.33 87.25C7.87 86.81 7.84 86.76 7.84 86.27C7.84 85.79 7.82 85.74 7.35 85.29C6.89 84.85 6.86 84.79 6.86 84.32L6.86 83.82L5.39 82.35L3.92 80.89L3.92 80.39L3.92 79.89L2.94 78.92L1.96 77.95L1.96 77.44C1.96 76.96 1.93 76.91 1.51 76.52C1.09 76.13 1.05 76.06 0.99 75.49C0.91 74.81 0.67 74.51 0.23 74.51L0 74.51L0 55.88L0 37.25L0.23 37.25C0.36 37.25 0.57 37.17 0.7 37.07C0.93 36.88 0.93 36.84 0.98 34.81L1.03 32.75L1.5 32.32L1.96 31.89L1.96 30.4L1.96 28.9L2.45 28.43C2.92 27.98 2.94 27.93 2.94 27.45C2.94 26.97 2.97 26.92 3.43 26.47L3.92 26L3.92 25L3.92 24L4.41 23.53L4.9 23.06L4.9 17.16L4.9 11.26L5.39 10.78L5.88 10.31L5.88 9.31L5.88 8.32L6.37 7.84L6.86 7.37L6.86 6.37L6.86 5.37L7.35 4.9L7.84 4.43L7.84 2.94L7.84 1.45L8.33 0.98C8.67 0.65 8.82 0.43 8.82 0.25L8.82 0L9.8 0L10.78 0L10.78 0.25C10.78 0.62 11.19 0.98 11.61 0.98C12.12 0.98 12.47 1.15 12.81 1.55L13.12 1.91L19.12 1.96L25.11 2.01L25.47 2.43C25.8 2.82 25.89 2.86 26.47 2.94C27.05 3.02 27.14 3.07 27.45 3.43C27.76 3.79 27.85 3.84 28.43 3.92C29.02 4 29.1 4.05 29.43 4.43L29.79 4.85L32.33 4.9L34.87 4.95L35.57 5.66L36.27 6.38L36.27 7.84L36.27 9.31L35.59 10.01C34.94 10.67 34.88 10.7 34.31 10.78C33.72 10.87 33.7 10.88 32.84 11.76C31.99 12.65 31.97 12.66 31.38 12.74L30.78 12.83L29.41 14.22L28.04 15.6L27.44 15.69C26.68 15.8 26.55 15.92 26.46 16.68C26.4 17.24 26.36 17.32 25.99 17.62C25.48 18.05 25.49 18.21 26.03 18.69L26.47 19.09L26.47 20.08L26.47 21.07L27.17 21.79L27.87 22.5L33.36 22.55L38.84 22.6L39.21 23.04L39.59 23.47L40.66 23.53L41.73 23.58L43.41 25.27L45.1 26.96L45.1 29.41L45.1 31.86L44.41 32.55C43.75 33.22 43.71 33.25 43.11 33.34C42.56 33.41 42.47 33.46 42.14 33.84L41.78 34.26L40.2 34.26L38.61 34.26L38.24 33.83L37.87 33.39L36.76 33.33L35.66 33.28L35.29 32.84L34.92 32.4L33.82 32.4L32.73 32.4L32.36 32.84L31.98 33.28L30.91 33.33L29.83 33.39L29.13 34.1C28.45 34.79 28.43 34.82 28.43 35.29C28.43 35.77 28.45 35.8 29.13 36.49L29.83 37.21L35.79 37.25L41.74 37.3L42.63 38.22C43.5 39.12 43.53 39.13 44.11 39.21L44.69 39.3L46.33 40.93L47.96 42.57L48.03 43.16C48.11 43.81 48.35 44.12 48.79 44.12L49.02 44.12L49.02 45.59L49.02 47.06L48.79 47.06C48.35 47.06 48.11 47.36 48.03 48.02C47.97 48.59 47.94 48.64 47.31 49.27C46.69 49.89 46.63 49.92 46.05 50C45.5 50.08 45.41 50.13 45.08 50.51C44.73 50.92 44.71 50.93 44.12 50.93C43.53 50.93 43.51 50.92 43.15 50.51C42.83 50.13 42.74 50.08 42.17 50C41.56 49.92 41.55 49.91 40.69 49.02C39.82 48.13 39.81 48.12 39.2 48.04C38.64 47.96 38.54 47.91 38.24 47.55C37.92 47.19 37.83 47.14 37.25 47.06C36.67 46.98 36.59 46.93 36.26 46.55L35.9 46.13L33.82 46.13L31.75 46.13L31.39 46.55C31.06 46.93 30.98 46.98 30.39 47.06C29.6 47.17 29.41 47.36 29.41 48.06C29.41 48.52 29.38 48.58 28.92 49.02L28.43 49.49L28.43 51.96L28.43 54.43L28.92 54.9L29.41 55.37L29.41 56.85L29.41 58.33L30.59 59.52L31.77 60.7L32.38 60.79C32.93 60.86 33.03 60.92 33.33 61.27C33.64 61.64 33.74 61.68 34.31 61.76C34.89 61.85 34.98 61.89 35.29 62.25C35.6 62.61 35.7 62.66 36.25 62.74L36.85 62.83L38.52 64.5L40.2 66.18L40.2 66.68C40.2 67.15 40.22 67.2 40.69 67.65C41.15 68.09 41.18 68.15 41.18 68.63C41.18 69.11 41.2 69.16 41.67 69.61L42.16 70.08L42.16 72.06L42.16 74.04L42.65 74.51L43.14 74.98L43.14 76.47L43.14 77.95L44.12 78.92C45.1 79.89 45.1 79.9 45.1 80.38C45.1 81.06 45.29 81.26 46.06 81.37C46.68 81.46 46.68 81.46 47.54 82.34C48.15 82.98 48.48 83.25 48.7 83.29L49.02 83.36L49.02 84.8L49.02 86.25L48.7 86.31C48.48 86.36 48.15 86.63 47.52 87.28L46.65 88.19L40.67 88.19L34.69 88.19L34.33 87.77C34 87.38 33.92 87.34 33.33 87.25C32.54 87.14 32.35 86.95 32.35 86.25C32.35 85.8 32.32 85.74 31.86 85.29C31.4 84.85 31.37 84.79 31.37 84.31C31.37 83.83 31.35 83.78 30.88 83.33L30.39 82.86L30.39 81.86L30.39 80.86L29.9 80.39C29.44 79.95 29.41 79.89 29.41 79.42L29.41 78.92L28.22 77.72L27.02 76.52L25.95 76.47L24.88 76.41L24.51 75.98C24.14 75.55 24.12 75.54 23.55 75.54L22.97 75.54L22.27 76.25L21.57 76.96L21.57 83.33L21.57 89.7L23.24 91.38L24.91 93.06L25.49 93.14C26.07 93.22 26.07 93.22 27.25 94.41L28.43 95.59L28.43 97C28.43 97.78 28.4 98.49 28.37 98.57C28.28 98.81 27.81 99.02 27.35 99.02C26.88 99.02 26.47 99.36 26.47 99.75L26.47 100L20.1 100L13.73 100L13.73 99.75Z" fill="#f2a413"/></g><path d="M-14.0 -17 q13.5 -7.5 27 0 z" fill="#1638a8"/><rect x="-14.0" y="-17.5" width="27" height="4.4" rx="2.2" fill="#1638a8"/><rect x="-9.0" y="-10.5" width="17" height="4.2" rx="2.1" fill="#1638a8"/></g></g><text x="611.1999999999999" y="248" text-anchor="middle" font-family="DejaVu Sans" font-size="14" font-weight="bold" letter-spacing=".4" fill="#f2a413">SUNNY</text><text x="24" y="315.2" font-family="DejaVu Sans" font-size="13" font-weight="bold" fill="#6b6350">ACTUAL SIZE — 68px disc, as it appears on the keepsake</text><clipPath id="b0"><circle cx="0" cy="0" r="33"/></clipPath><g transform="translate(74.0,373.2) scale(1.0)"><circle cx="0" cy="0" r="34" fill="#fdeaf6" stroke="#f000c2" stroke-width="2"/><g clip-path="url(#b0)"><path d="M-5.0 -1.0 C-13.0 -5.0 -22.0 -12.0 -25.0 -21.0 C-22.0 -17.0 -20.0 -18.0 -19.0 -14.0 C-17.0 -16.0 -15.0 -15.0 -14.0 -11.0 C-12.0 -13.0 -10.0 -11.0 -9.0 -7.0 Z" fill="#1638a8"/><path d="M5.0 -1.0 C13.0 -5.0 22.0 -12.0 25.0 -21.0 C22.0 -17.0 20.0 -18.0 19.0 -14.0 C17.0 -16.0 15.0 -15.0 14.0 -11.0 C12.0 -13.0 10.0 -11.0 9.0 -7.0 Z" fill="#1638a8"/><g transform="translate(-10.8,-22.0) scale(0.4400)"><path d="M13.73 99.75C13.73 99.38 13.32 99.02 12.9 99.02C12.33 99.02 12.1 98.87 10.93 97.7L9.8 96.57L9.8 93.62L9.8 90.67L9.31 90.2L8.82 89.72L8.82 88.73L8.82 87.73L8.33 87.25C7.87 86.81 7.84 86.76 7.84 86.27C7.84 85.79 7.82 85.74 7.35 85.29C6.89 84.85 6.86 84.79 6.86 84.32L6.86 83.82L5.39 82.35L3.92 80.89L3.92 80.39L3.92 79.89L2.94 78.92L1.96 77.95L1.96 77.44C1.96 76.96 1.93 76.91 1.51 76.52C1.09 76.13 1.05 76.06 0.99 75.49C0.91 74.81 0.67 74.51 0.23 74.51L0 74.51L0 55.88L0 37.25L0.23 37.25C0.36 37.25 0.57 37.17 0.7 37.07C0.93 36.88 0.93 36.84 0.98 34.81L1.03 32.75L1.5 32.32L1.96 31.89L1.96 30.4L1.96 28.9L2.45 28.43C2.92 27.98 2.94 27.93 2.94 27.45C2.94 26.97 2.97 26.92 3.43 26.47L3.92 26L3.92 25L3.92 24L4.41 23.53L4.9 23.06L4.9 17.16L4.9 11.26L5.39 10.78L5.88 10.31L5.88 9.31L5.88 8.32L6.37 7.84L6.86 7.37L6.86 6.37L6.86 5.37L7.35 4.9L7.84 4.43L7.84 2.94L7.84 1.45L8.33 0.98C8.67 0.65 8.82 0.43 8.82 0.25L8.82 0L9.8 0L10.78 0L10.78 0.25C10.78 0.62 11.19 0.98 11.61 0.98C12.12 0.98 12.47 1.15 12.81 1.55L13.12 1.91L19.12 1.96L25.11 2.01L25.47 2.43C25.8 2.82 25.89 2.86 26.47 2.94C27.05 3.02 27.14 3.07 27.45 3.43C27.76 3.79 27.85 3.84 28.43 3.92C29.02 4 29.1 4.05 29.43 4.43L29.79 4.85L32.33 4.9L34.87 4.95L35.57 5.66L36.27 6.38L36.27 7.84L36.27 9.31L35.59 10.01C34.94 10.67 34.88 10.7 34.31 10.78C33.72 10.87 33.7 10.88 32.84 11.76C31.99 12.65 31.97 12.66 31.38 12.74L30.78 12.83L29.41 14.22L28.04 15.6L27.44 15.69C26.68 15.8 26.55 15.92 26.46 16.68C26.4 17.24 26.36 17.32 25.99 17.62C25.48 18.05 25.49 18.21 26.03 18.69L26.47 19.09L26.47 20.08L26.47 21.07L27.17 21.79L27.87 22.5L33.36 22.55L38.84 22.6L39.21 23.04L39.59 23.47L40.66 23.53L41.73 23.58L43.41 25.27L45.1 26.96L45.1 29.41L45.1 31.86L44.41 32.55C43.75 33.22 43.71 33.25 43.11 33.34C42.56 33.41 42.47 33.46 42.14 33.84L41.78 34.26L40.2 34.26L38.61 34.26L38.24 33.83L37.87 33.39L36.76 33.33L35.66 33.28L35.29 32.84L34.92 32.4L33.82 32.4L32.73 32.4L32.36 32.84L31.98 33.28L30.91 33.33L29.83 33.39L29.13 34.1C28.45 34.79 28.43 34.82 28.43 35.29C28.43 35.77 28.45 35.8 29.13 36.49L29.83 37.21L35.79 37.25L41.74 37.3L42.63 38.22C43.5 39.12 43.53 39.13 44.11 39.21L44.69 39.3L46.33 40.93L47.96 42.57L48.03 43.16C48.11 43.81 48.35 44.12 48.79 44.12L49.02 44.12L49.02 45.59L49.02 47.06L48.79 47.06C48.35 47.06 48.11 47.36 48.03 48.02C47.97 48.59 47.94 48.64 47.31 49.27C46.69 49.89 46.63 49.92 46.05 50C45.5 50.08 45.41 50.13 45.08 50.51C44.73 50.92 44.71 50.93 44.12 50.93C43.53 50.93 43.51 50.92 43.15 50.51C42.83 50.13 42.74 50.08 42.17 50C41.56 49.92 41.55 49.91 40.69 49.02C39.82 48.13 39.81 48.12 39.2 48.04C38.64 47.96 38.54 47.91 38.24 47.55C37.92 47.19 37.83 47.14 37.25 47.06C36.67 46.98 36.59 46.93 36.26 46.55L35.9 46.13L33.82 46.13L31.75 46.13L31.39 46.55C31.06 46.93 30.98 46.98 30.39 47.06C29.6 47.17 29.41 47.36 29.41 48.06C29.41 48.52 29.38 48.58 28.92 49.02L28.43 49.49L28.43 51.96L28.43 54.43L28.92 54.9L29.41 55.37L29.41 56.85L29.41 58.33L30.59 59.52L31.77 60.7L32.38 60.79C32.93 60.86 33.03 60.92 33.33 61.27C33.64 61.64 33.74 61.68 34.31 61.76C34.89 61.85 34.98 61.89 35.29 62.25C35.6 62.61 35.7 62.66 36.25 62.74L36.85 62.83L38.52 64.5L40.2 66.18L40.2 66.68C40.2 67.15 40.22 67.2 40.69 67.65C41.15 68.09 41.18 68.15 41.18 68.63C41.18 69.11 41.2 69.16 41.67 69.61L42.16 70.08L42.16 72.06L42.16 74.04L42.65 74.51L43.14 74.98L43.14 76.47L43.14 77.95L44.12 78.92C45.1 79.89 45.1 79.9 45.1 80.38C45.1 81.06 45.29 81.26 46.06 81.37C46.68 81.46 46.68 81.46 47.54 82.34C48.15 82.98 48.48 83.25 48.7 83.29L49.02 83.36L49.02 84.8L49.02 86.25L48.7 86.31C48.48 86.36 48.15 86.63 47.52 87.28L46.65 88.19L40.67 88.19L34.69 88.19L34.33 87.77C34 87.38 33.92 87.34 33.33 87.25C32.54 87.14 32.35 86.95 32.35 86.25C32.35 85.8 32.32 85.74 31.86 85.29C31.4 84.85 31.37 84.79 31.37 84.31C31.37 83.83 31.35 83.78 30.88 83.33L30.39 82.86L30.39 81.86L30.39 80.86L29.9 80.39C29.44 79.95 29.41 79.89 29.41 79.42L29.41 78.92L28.22 77.72L27.02 76.52L25.95 76.47L24.88 76.41L24.51 75.98C24.14 75.55 24.12 75.54 23.55 75.54L22.97 75.54L22.27 76.25L21.57 76.96L21.57 83.33L21.57 89.7L23.24 91.38L24.91 93.06L25.49 93.14C26.07 93.22 26.07 93.22 27.25 94.41L28.43 95.59L28.43 97C28.43 97.78 28.4 98.49 28.37 98.57C28.28 98.81 27.81 99.02 27.35 99.02C26.88 99.02 26.47 99.36 26.47 99.75L26.47 100L20.1 100L13.73 100L13.73 99.75Z" fill="#f000c2"/></g></g></g><text x="74.0" y="423" text-anchor="middle" font-family="DejaVu Sans" font-size="10" font-weight="bold" letter-spacing=".4" fill="#f000c2">3 BIRDIES</text><clipPath id="b1"><circle cx="0" cy="0" r="33"/></clipPath><g transform="translate(176.0,373.2) scale(1.0)"><circle cx="0" cy="0" r="34" fill="#e9f2f9" stroke="#5b8db8" stroke-width="2"/><g clip-path="url(#b1)"><g transform="translate(-9.8,-17.0) scale(0.4000)"><path d="M13.73 99.75C13.73 99.38 13.32 99.02 12.9 99.02C12.33 99.02 12.1 98.87 10.93 97.7L9.8 96.57L9.8 93.62L9.8 90.67L9.31 90.2L8.82 89.72L8.82 88.73L8.82 87.73L8.33 87.25C7.87 86.81 7.84 86.76 7.84 86.27C7.84 85.79 7.82 85.74 7.35 85.29C6.89 84.85 6.86 84.79 6.86 84.32L6.86 83.82L5.39 82.35L3.92 80.89L3.92 80.39L3.92 79.89L2.94 78.92L1.96 77.95L1.96 77.44C1.96 76.96 1.93 76.91 1.51 76.52C1.09 76.13 1.05 76.06 0.99 75.49C0.91 74.81 0.67 74.51 0.23 74.51L0 74.51L0 55.88L0 37.25L0.23 37.25C0.36 37.25 0.57 37.17 0.7 37.07C0.93 36.88 0.93 36.84 0.98 34.81L1.03 32.75L1.5 32.32L1.96 31.89L1.96 30.4L1.96 28.9L2.45 28.43C2.92 27.98 2.94 27.93 2.94 27.45C2.94 26.97 2.97 26.92 3.43 26.47L3.92 26L3.92 25L3.92 24L4.41 23.53L4.9 23.06L4.9 17.16L4.9 11.26L5.39 10.78L5.88 10.31L5.88 9.31L5.88 8.32L6.37 7.84L6.86 7.37L6.86 6.37L6.86 5.37L7.35 4.9L7.84 4.43L7.84 2.94L7.84 1.45L8.33 0.98C8.67 0.65 8.82 0.43 8.82 0.25L8.82 0L9.8 0L10.78 0L10.78 0.25C10.78 0.62 11.19 0.98 11.61 0.98C12.12 0.98 12.47 1.15 12.81 1.55L13.12 1.91L19.12 1.96L25.11 2.01L25.47 2.43C25.8 2.82 25.89 2.86 26.47 2.94C27.05 3.02 27.14 3.07 27.45 3.43C27.76 3.79 27.85 3.84 28.43 3.92C29.02 4 29.1 4.05 29.43 4.43L29.79 4.85L32.33 4.9L34.87 4.95L35.57 5.66L36.27 6.38L36.27 7.84L36.27 9.31L35.59 10.01C34.94 10.67 34.88 10.7 34.31 10.78C33.72 10.87 33.7 10.88 32.84 11.76C31.99 12.65 31.97 12.66 31.38 12.74L30.78 12.83L29.41 14.22L28.04 15.6L27.44 15.69C26.68 15.8 26.55 15.92 26.46 16.68C26.4 17.24 26.36 17.32 25.99 17.62C25.48 18.05 25.49 18.21 26.03 18.69L26.47 19.09L26.47 20.08L26.47 21.07L27.17 21.79L27.87 22.5L33.36 22.55L38.84 22.6L39.21 23.04L39.59 23.47L40.66 23.53L41.73 23.58L43.41 25.27L45.1 26.96L45.1 29.41L45.1 31.86L44.41 32.55C43.75 33.22 43.71 33.25 43.11 33.34C42.56 33.41 42.47 33.46 42.14 33.84L41.78 34.26L40.2 34.26L38.61 34.26L38.24 33.83L37.87 33.39L36.76 33.33L35.66 33.28L35.29 32.84L34.92 32.4L33.82 32.4L32.73 32.4L32.36 32.84L31.98 33.28L30.91 33.33L29.83 33.39L29.13 34.1C28.45 34.79 28.43 34.82 28.43 35.29C28.43 35.77 28.45 35.8 29.13 36.49L29.83 37.21L35.79 37.25L41.74 37.3L42.63 38.22C43.5 39.12 43.53 39.13 44.11 39.21L44.69 39.3L46.33 40.93L47.96 42.57L48.03 43.16C48.11 43.81 48.35 44.12 48.79 44.12L49.02 44.12L49.02 45.59L49.02 47.06L48.79 47.06C48.35 47.06 48.11 47.36 48.03 48.02C47.97 48.59 47.94 48.64 47.31 49.27C46.69 49.89 46.63 49.92 46.05 50C45.5 50.08 45.41 50.13 45.08 50.51C44.73 50.92 44.71 50.93 44.12 50.93C43.53 50.93 43.51 50.92 43.15 50.51C42.83 50.13 42.74 50.08 42.17 50C41.56 49.92 41.55 49.91 40.69 49.02C39.82 48.13 39.81 48.12 39.2 48.04C38.64 47.96 38.54 47.91 38.24 47.55C37.92 47.19 37.83 47.14 37.25 47.06C36.67 46.98 36.59 46.93 36.26 46.55L35.9 46.13L33.82 46.13L31.75 46.13L31.39 46.55C31.06 46.93 30.98 46.98 30.39 47.06C29.6 47.17 29.41 47.36 29.41 48.06C29.41 48.52 29.38 48.58 28.92 49.02L28.43 49.49L28.43 51.96L28.43 54.43L28.92 54.9L29.41 55.37L29.41 56.85L29.41 58.33L30.59 59.52L31.77 60.7L32.38 60.79C32.93 60.86 33.03 60.92 33.33 61.27C33.64 61.64 33.74 61.68 34.31 61.76C34.89 61.85 34.98 61.89 35.29 62.25C35.6 62.61 35.7 62.66 36.25 62.74L36.85 62.83L38.52 64.5L40.2 66.18L40.2 66.68C40.2 67.15 40.22 67.2 40.69 67.65C41.15 68.09 41.18 68.15 41.18 68.63C41.18 69.11 41.2 69.16 41.67 69.61L42.16 70.08L42.16 72.06L42.16 74.04L42.65 74.51L43.14 74.98L43.14 76.47L43.14 77.95L44.12 78.92C45.1 79.89 45.1 79.9 45.1 80.38C45.1 81.06 45.29 81.26 46.06 81.37C46.68 81.46 46.68 81.46 47.54 82.34C48.15 82.98 48.48 83.25 48.7 83.29L49.02 83.36L49.02 84.8L49.02 86.25L48.7 86.31C48.48 86.36 48.15 86.63 47.52 87.28L46.65 88.19L40.67 88.19L34.69 88.19L34.33 87.77C34 87.38 33.92 87.34 33.33 87.25C32.54 87.14 32.35 86.95 32.35 86.25C32.35 85.8 32.32 85.74 31.86 85.29C31.4 84.85 31.37 84.79 31.37 84.31C31.37 83.83 31.35 83.78 30.88 83.33L30.39 82.86L30.39 81.86L30.39 80.86L29.9 80.39C29.44 79.95 29.41 79.89 29.41 79.42L29.41 78.92L28.22 77.72L27.02 76.52L25.95 76.47L24.88 76.41L24.51 75.98C24.14 75.55 24.12 75.54 23.55 75.54L22.97 75.54L22.27 76.25L21.57 76.96L21.57 83.33L21.57 89.7L23.24 91.38L24.91 93.06L25.49 93.14C26.07 93.22 26.07 93.22 27.25 94.41L28.43 95.59L28.43 97C28.43 97.78 28.4 98.49 28.37 98.57C28.28 98.81 27.81 99.02 27.35 99.02C26.88 99.02 26.47 99.36 26.47 99.75L26.47 100L20.1 100L13.73 100L13.73 99.75Z" fill="#7fb2d8"/></g><path d="M-14 -19 A15 15 0 0 1 16 -19 Q11 -22.5 6 -19 Q1 -22.5 -4 -19 Q-9 -22.5 -14 -19 Z" fill="#1638a8"/><path d="M1 -19 V-1" stroke="#1638a8" stroke-width="2.2" stroke-linecap="round"/><path d="M1 -1 q0 4.5 -4.5 4.5" fill="none" stroke="#1638a8" stroke-width="2.2" stroke-linecap="round"/></g></g><text x="176.0" y="423" text-anchor="middle" font-family="DejaVu Sans" font-size="10" font-weight="bold" letter-spacing=".4" fill="#5b8db8">RAIN</text><clipPath id="b2"><circle cx="0" cy="0" r="33"/></clipPath><g transform="translate(278.0,373.2) scale(1.0)"><circle cx="0" cy="0" r="34" fill="#fdf0d8" stroke="#f2a413" stroke-width="2"/><g clip-path="url(#b2)"><g transform="translate(-10.8,-22.0) scale(0.4400)"><path d="M13.73 99.75C13.73 99.38 13.32 99.02 12.9 99.02C12.33 99.02 12.1 98.87 10.93 97.7L9.8 96.57L9.8 93.62L9.8 90.67L9.31 90.2L8.82 89.72L8.82 88.73L8.82 87.73L8.33 87.25C7.87 86.81 7.84 86.76 7.84 86.27C7.84 85.79 7.82 85.74 7.35 85.29C6.89 84.85 6.86 84.79 6.86 84.32L6.86 83.82L5.39 82.35L3.92 80.89L3.92 80.39L3.92 79.89L2.94 78.92L1.96 77.95L1.96 77.44C1.96 76.96 1.93 76.91 1.51 76.52C1.09 76.13 1.05 76.06 0.99 75.49C0.91 74.81 0.67 74.51 0.23 74.51L0 74.51L0 55.88L0 37.25L0.23 37.25C0.36 37.25 0.57 37.17 0.7 37.07C0.93 36.88 0.93 36.84 0.98 34.81L1.03 32.75L1.5 32.32L1.96 31.89L1.96 30.4L1.96 28.9L2.45 28.43C2.92 27.98 2.94 27.93 2.94 27.45C2.94 26.97 2.97 26.92 3.43 26.47L3.92 26L3.92 25L3.92 24L4.41 23.53L4.9 23.06L4.9 17.16L4.9 11.26L5.39 10.78L5.88 10.31L5.88 9.31L5.88 8.32L6.37 7.84L6.86 7.37L6.86 6.37L6.86 5.37L7.35 4.9L7.84 4.43L7.84 2.94L7.84 1.45L8.33 0.98C8.67 0.65 8.82 0.43 8.82 0.25L8.82 0L9.8 0L10.78 0L10.78 0.25C10.78 0.62 11.19 0.98 11.61 0.98C12.12 0.98 12.47 1.15 12.81 1.55L13.12 1.91L19.12 1.96L25.11 2.01L25.47 2.43C25.8 2.82 25.89 2.86 26.47 2.94C27.05 3.02 27.14 3.07 27.45 3.43C27.76 3.79 27.85 3.84 28.43 3.92C29.02 4 29.1 4.05 29.43 4.43L29.79 4.85L32.33 4.9L34.87 4.95L35.57 5.66L36.27 6.38L36.27 7.84L36.27 9.31L35.59 10.01C34.94 10.67 34.88 10.7 34.31 10.78C33.72 10.87 33.7 10.88 32.84 11.76C31.99 12.65 31.97 12.66 31.38 12.74L30.78 12.83L29.41 14.22L28.04 15.6L27.44 15.69C26.68 15.8 26.55 15.92 26.46 16.68C26.4 17.24 26.36 17.32 25.99 17.62C25.48 18.05 25.49 18.21 26.03 18.69L26.47 19.09L26.47 20.08L26.47 21.07L27.17 21.79L27.87 22.5L33.36 22.55L38.84 22.6L39.21 23.04L39.59 23.47L40.66 23.53L41.73 23.58L43.41 25.27L45.1 26.96L45.1 29.41L45.1 31.86L44.41 32.55C43.75 33.22 43.71 33.25 43.11 33.34C42.56 33.41 42.47 33.46 42.14 33.84L41.78 34.26L40.2 34.26L38.61 34.26L38.24 33.83L37.87 33.39L36.76 33.33L35.66 33.28L35.29 32.84L34.92 32.4L33.82 32.4L32.73 32.4L32.36 32.84L31.98 33.28L30.91 33.33L29.83 33.39L29.13 34.1C28.45 34.79 28.43 34.82 28.43 35.29C28.43 35.77 28.45 35.8 29.13 36.49L29.83 37.21L35.79 37.25L41.74 37.3L42.63 38.22C43.5 39.12 43.53 39.13 44.11 39.21L44.69 39.3L46.33 40.93L47.96 42.57L48.03 43.16C48.11 43.81 48.35 44.12 48.79 44.12L49.02 44.12L49.02 45.59L49.02 47.06L48.79 47.06C48.35 47.06 48.11 47.36 48.03 48.02C47.97 48.59 47.94 48.64 47.31 49.27C46.69 49.89 46.63 49.92 46.05 50C45.5 50.08 45.41 50.13 45.08 50.51C44.73 50.92 44.71 50.93 44.12 50.93C43.53 50.93 43.51 50.92 43.15 50.51C42.83 50.13 42.74 50.08 42.17 50C41.56 49.92 41.55 49.91 40.69 49.02C39.82 48.13 39.81 48.12 39.2 48.04C38.64 47.96 38.54 47.91 38.24 47.55C37.92 47.19 37.83 47.14 37.25 47.06C36.67 46.98 36.59 46.93 36.26 46.55L35.9 46.13L33.82 46.13L31.75 46.13L31.39 46.55C31.06 46.93 30.98 46.98 30.39 47.06C29.6 47.17 29.41 47.36 29.41 48.06C29.41 48.52 29.38 48.58 28.92 49.02L28.43 49.49L28.43 51.96L28.43 54.43L28.92 54.9L29.41 55.37L29.41 56.85L29.41 58.33L30.59 59.52L31.77 60.7L32.38 60.79C32.93 60.86 33.03 60.92 33.33 61.27C33.64 61.64 33.74 61.68 34.31 61.76C34.89 61.85 34.98 61.89 35.29 62.25C35.6 62.61 35.7 62.66 36.25 62.74L36.85 62.83L38.52 64.5L40.2 66.18L40.2 66.68C40.2 67.15 40.22 67.2 40.69 67.65C41.15 68.09 41.18 68.15 41.18 68.63C41.18 69.11 41.2 69.16 41.67 69.61L42.16 70.08L42.16 72.06L42.16 74.04L42.65 74.51L43.14 74.98L43.14 76.47L43.14 77.95L44.12 78.92C45.1 79.89 45.1 79.9 45.1 80.38C45.1 81.06 45.29 81.26 46.06 81.37C46.68 81.46 46.68 81.46 47.54 82.34C48.15 82.98 48.48 83.25 48.7 83.29L49.02 83.36L49.02 84.8L49.02 86.25L48.7 86.31C48.48 86.36 48.15 86.63 47.52 87.28L46.65 88.19L40.67 88.19L34.69 88.19L34.33 87.77C34 87.38 33.92 87.34 33.33 87.25C32.54 87.14 32.35 86.95 32.35 86.25C32.35 85.8 32.32 85.74 31.86 85.29C31.4 84.85 31.37 84.79 31.37 84.31C31.37 83.83 31.35 83.78 30.88 83.33L30.39 82.86L30.39 81.86L30.39 80.86L29.9 80.39C29.44 79.95 29.41 79.89 29.41 79.42L29.41 78.92L28.22 77.72L27.02 76.52L25.95 76.47L24.88 76.41L24.51 75.98C24.14 75.55 24.12 75.54 23.55 75.54L22.97 75.54L22.27 76.25L21.57 76.96L21.57 83.33L21.57 89.7L23.24 91.38L24.91 93.06L25.49 93.14C26.07 93.22 26.07 93.22 27.25 94.41L28.43 95.59L28.43 97C28.43 97.78 28.4 98.49 28.37 98.57C28.28 98.81 27.81 99.02 27.35 99.02C26.88 99.02 26.47 99.36 26.47 99.75L26.47 100L20.1 100L13.73 100L13.73 99.75Z" fill="#f2a413"/></g><path d="M-14.0 -17 q13.5 -7.5 27 0 z" fill="#1638a8"/><rect x="-14.0" y="-17.5" width="27" height="4.4" rx="2.2" fill="#1638a8"/><rect x="-9.0" y="-10.5" width="17" height="4.2" rx="2.1" fill="#1638a8"/></g></g><text x="278.0" y="423" text-anchor="middle" font-family="DejaVu Sans" font-size="10" font-weight="bold" letter-spacing=".4" fill="#f2a413">SUNNY</text></svg>